<?xml version="1.0"?>
<svg width="200" height="60" xmlns="http://www.w3.org/2000/svg" xmlns:svg="http://www.w3.org/2000/svg" xmlns:xlink="http://www.w3.org/1999/xlink">
 <!-- Created with SVG-edit - https://github.com/SVG-Edit/svgedit-->
 <defs>
  <symbol id="svg_1" viewBox="0 0 167 34" xmlns="http://www.w3.org/2000/svg">
   <path clip-rule="evenodd" d="m23.7628,22.5576l0,-19.3701l-20.20361,0l0,19.3701l10.10181,7.4758l10.1018,-7.4758zm3.1901,1.6057l-13.2919,9.8367l-13.29186,-9.8367l0,-24.1633l26.58376,0l0,24.1633z" fill="#01A09A" fill-rule="evenodd" id="svg_4"/>
   <path d="m13.1293,26.5625l0,-21.25l-7.44341,0l0,15.9375l7.44341,5.3125z" fill="#01A09A" id="svg_5"/>
   <path d="m51.939,6.14504l1.9307,0l0,18.70996l-2.3807,0l0,-12.6184l-5.8065,12.6184l-1.4806,0l-5.792,-12.6184l0,12.6184l-2.3806,0l0,-18.70996l1.9306,0l6.9823,14.99696l6.9968,-14.99696z" fill="#181425" id="svg_6"/>
   <path d="m60.6923,24.855l-2.3807,0l0,-16.33134l2.3807,0l0,16.33134z" fill="#181425" id="svg_7"/>
   <path d="m63.2181,8.52366l12.7742,0l0,2.07404l-5.1968,0l0,14.2573l-2.3806,0l0,-14.2573l-5.1968,0l0,-2.07404z" fill="#181425" id="svg_8"/>
   <path d="m80.8988,16.5443l4.0209,0c0.9678,0 1.7275,-0.2708 2.2791,-0.8122c0.5613,-0.5512 0.8419,-1.2715 0.8419,-2.1611c0,-0.8896 -0.2806,-1.6051 -0.8419,-2.1466c-0.5516,-0.5511 -1.3113,-0.8267 -2.2791,-0.8267l-4.0209,0l0,5.9466zm10.2629,8.3107l-2.6855,0l-3.8613,-6.2367l-3.7161,0l0,6.2367l-2.3807,0l0,-16.33134l6.4016,0c0.813,0 1.5533,0.13054 2.221,0.39161c0.6774,0.2514 1.2581,0.60432 1.742,1.05878c0.4838,0.45445 0.8613,0.99105 1.1322,1.60995c0.271,0.6091 0.4065,1.2715 0.4065,1.987c0,0.9476 -0.1791,1.7163 -0.5371,2.3061c-0.3581,0.5802 -0.7549,1.0394 -1.1904,1.3779c-0.5129,0.3964 -1.079,0.701 -1.6983,0.9137l4.1661,6.6863z" fill="#181425" id="svg_9"/>
   <path d="m95.6036,20.9969l-1.3354,3.8581l-2.5259,0l6.242,-16.33134l2.6707,0l6.242,16.33134l-2.526,0l-1.335,-3.8581l-7.4324,0zm3.7162,-10.1091l-2.9758,8.1801l5.952,0l-2.9762,-8.1801z" fill="#181425" id="svg_10"/>
   <path d="m108.233,11.0473c0,-0.6381 0.15,-1.25697 0.45,-1.85646c0.3,-0.60916 0.721,-1.15064 1.263,-1.62443c0.542,-0.47379 1.185,-0.85089 1.93,-1.1313c0.745,-0.29007 1.563,-0.43511 2.453,-0.43511c0.813,0 1.568,0.14987 2.265,0.44962c0.706,0.29007 1.321,0.68651 1.844,1.18931c0.532,0.5028 0.943,1.10229 1.233,1.79847c0.3,0.6962 0.45,1.431 0.45,2.2046l-2.366,0c0,-1.054 -0.329,-1.90968 -0.987,-2.56719c-0.658,-0.66718 -1.471,-1.00076 -2.439,-1.00076c-0.551,0 -1.059,0.08702 -1.524,0.26106c-0.455,0.16438 -0.846,0.38677 -1.176,0.66718c-0.319,0.27074 -0.57,0.58499 -0.754,0.94275c-0.175,0.35776 -0.262,0.72516 -0.262,1.10226c0,0.7736 0.247,1.3731 0.741,1.7985c0.493,0.4254 1.108,0.7832 1.843,1.0733c0.736,0.2804 1.534,0.5463 2.395,0.7977c0.862,0.2417 1.66,0.5656 2.396,0.9717c0.735,0.4062 1.35,0.9428 1.843,1.61c0.494,0.6575 0.74,1.5422 0.74,2.6542c0,0.6768 -0.145,1.3198 -0.435,1.929c-0.281,0.5995 -0.692,1.1313 -1.234,1.5954c-0.532,0.4641 -1.185,0.8364 -1.96,1.1168c-0.774,0.2707 -1.645,0.4061 -2.613,0.4061c-0.967,0 -1.838,-0.1354 -2.612,-0.4061c-0.775,-0.2804 -1.433,-0.672 -1.975,-1.1748c-0.532,-0.5125 -0.943,-1.112 -1.233,-1.7985c-0.281,-0.6962 -0.421,-1.4504 -0.421,-2.2626l2.38,0c0,1.1313 0.324,2.0112 0.973,2.6397c0.658,0.6188 1.621,0.9283 2.888,0.9283c1.268,0 2.226,-0.2853 2.875,-0.8558c0.658,-0.5801 0.987,-1.286 0.987,-2.1175c0,-0.7736 -0.247,-1.3731 -0.741,-1.7985c-0.493,-0.4254 -1.108,-0.7784 -1.843,-1.0588c-0.736,-0.2901 -1.534,-0.556 -2.395,-0.7977c-0.862,-0.2514 -1.66,-0.5801 -2.395,-0.9862c-0.726,-0.4062 -1.341,-0.938 -1.844,-1.5955c-0.494,-0.6671 -0.74,-1.5567 -0.74,-2.6687z" fill="#181425" id="svg_11"/>
   <path d="m125.042,16.6893c0,0.8896 0.15,1.7163 0.45,2.4802c0.31,0.7638 0.726,1.4213 1.249,1.9725c0.532,0.5511 1.132,0.9862 1.8,1.3053c0.677,0.3191 1.393,0.4787 2.148,0.4787c0.736,0 1.442,-0.1596 2.12,-0.4787c0.687,-0.3191 1.292,-0.7542 1.814,-1.3053c0.523,-0.5512 0.939,-1.2087 1.248,-1.9725c0.31,-0.7639 0.465,-1.5906 0.465,-2.4802c0,-0.8896 -0.155,-1.7163 -0.465,-2.4801c-0.309,-0.7639 -0.725,-1.4214 -1.248,-1.9726c-0.522,-0.5608 -1.127,-0.9959 -1.814,-1.3053c-0.688,-0.3191 -1.394,-0.4786 -2.12,-0.4786c-0.755,0 -1.471,0.1595 -2.148,0.4786c-0.668,0.3094 -1.268,0.7445 -1.8,1.3053c-0.523,0.5512 -0.939,1.2087 -1.249,1.9726c-0.3,0.7638 -0.45,1.5905 -0.45,2.4801zm13.675,0c0,1.1506 -0.223,2.2288 -0.668,3.2344c-0.436,1.0056 -1.021,1.8855 -1.757,2.6397c-0.725,0.7542 -1.577,1.3488 -2.554,1.7839c-0.968,0.4351 -1.984,0.6527 -3.049,0.6527c-1.074,0 -2.1,-0.2176 -3.077,-0.6527c-0.968,-0.4351 -1.82,-1.0297 -2.555,-1.7839c-0.726,-0.7542 -1.307,-1.6341 -1.742,-2.6397c-0.435,-1.0056 -0.653,-2.0838 -0.653,-3.2344c0,-1.1506 0.218,-2.2287 0.653,-3.2343c0.435,-1.0153 1.016,-1.9 1.742,-2.6542c0.735,-0.7542 1.587,-1.34889 2.555,-1.78401c0.977,-0.43511 2.003,-0.65267 3.077,-0.65267c1.074,0 2.095,0.21756 3.063,0.65267c0.968,0.43512 1.815,1.02981 2.54,1.78401c0.736,0.7542 1.321,1.6389 1.757,2.6542c0.445,1.0056 0.668,2.0837 0.668,3.2343z" fill="#181425" id="svg_12"/>
   <path d="m141.838,24.855l0,-16.33134l10.713,0l0,2.07404l-8.333,0l0,5.1924l6.837,0l0,2.0885l-6.837,0l0,6.9764l-2.38,0z" fill="#181425" id="svg_13"/>
   <path d="m153.596,8.52366l12.774,0l0,2.07404l-5.197,0l0,14.2573l-2.38,0l0,-14.2573l-5.197,0l0,-2.07404z" fill="#181425" id="svg_14"/>
  </symbol>
 </defs>
 <g class="layer">
  <title>Layer 1</title>
  <use id="svg_2" transform="matrix(0.958084 0 0 0.958084 0 0)" x="4.79212" xlink:href="#svg_1" y="-8.349998"/>
  <g id="svg_3"/>
  <text fill="#000000" font-family="Sans-serif" font-size="32" id="svg_16" stroke="#000000" stroke-width="0" text-anchor="middle" transform="matrix(1 0 0 0.936085 0 5.88831)" x="78.749999" xml:space="preserve" y="53.652378">T</text>
  <text fill="#000000" font-family="Sans-serif" font-size="26" id="svg_18" stroke="#000000" stroke-width="0" text-anchor="middle" transform="matrix(0.955413 0 0 0.986048 6.69458 -50.0284)" x="111.639989" xml:space="preserve" y="107.709555">ASK</text>
 </g>
</svg>